<svg xmlns="http://www.w3.org/2000/svg" version="1.1" xmlns:xlink="http://www.w3.org/1999/xlink" xmlns:svgjs="http://svgjs.dev/svgjs" preserveAspectRatio="none" viewBox="0 0 2440 1560">
    <g mask="url(&quot;#SvgjsMask8596&quot;)" fill="none">
        <rect width="2440" height="1560" x="0" y="0" fill="#0e2a47"></rect>
        <g>
            <path d="M1325 625L1275 625L1225 625L1175 625L1125 625L1075 625L1025 625L975 675L925 675L875 675L825 675L775 675M1775 725L1725 675L1675 625L1625 625M1825 725L1775 775L1725 775L1675 775L1625 775M2375 775L2325 825L2275 825L2225 825L2175 825M1875 725L1825 775L1775 825L1725 825L1675 825L1625 825L1575 775L1525 775M1075 675L1025 725L975 725L925 725L875 725L825 725L775 725L725 725L675 725M2125 725L2075 775L2025 775L1975 775L1925 775L1875 775M2475 775L2425 775L2375 775L2325 775L2275 775L2225 775L2175 775L2125 725L2075 725L2025 725L1975 725L1925 725L1875 725L1825 725L1775 725L1725 725L1675 725L1625 725L1575 725L1525 675L1475 675L1425 625L1375 625L1325 625L1275 675L1225 675L1175 675L1125 675L1075 675L1025 675" stroke="url(&quot;#SvgjsRadialGradient8597&quot;)" stroke-width="8.33"></path>
            <path d="M1016.67 675 a8.33 8.33 0 1 0 16.66 0 a8.33 8.33 0 1 0 -16.66 0zM766.67 675 a8.33 8.33 0 1 0 16.66 0 a8.33 8.33 0 1 0 -16.66 0zM1616.67 625 a8.33 8.33 0 1 0 16.66 0 a8.33 8.33 0 1 0 -16.66 0zM1616.67 775 a8.33 8.33 0 1 0 16.66 0 a8.33 8.33 0 1 0 -16.66 0zM2166.67 825 a8.33 8.33 0 1 0 16.66 0 a8.33 8.33 0 1 0 -16.66 0zM1516.67 775 a8.33 8.33 0 1 0 16.66 0 a8.33 8.33 0 1 0 -16.66 0zM666.67 725 a8.33 8.33 0 1 0 16.66 0 a8.33 8.33 0 1 0 -16.66 0zM1866.67 775 a8.33 8.33 0 1 0 16.66 0 a8.33 8.33 0 1 0 -16.66 0z" fill="url(&quot;#SvgjsRadialGradient8597&quot;)"></path>
            <path d="M2275 875L2225 925L2175 925L2125 925M2125 875L2075 875L2025 875M2475 825L2425 825L2375 875L2325 875L2275 875L2225 875L2175 875L2125 875L2075 925" stroke="url(&quot;#SvgjsRadialGradient8597&quot;)" stroke-width="8.33"></path>
            <path d="M2066.67 925 a8.33 8.33 0 1 0 16.66 0 a8.33 8.33 0 1 0 -16.66 0zM2116.67 925 a8.33 8.33 0 1 0 16.66 0 a8.33 8.33 0 1 0 -16.66 0zM2016.67 875 a8.33 8.33 0 1 0 16.66 0 a8.33 8.33 0 1 0 -16.66 0z" fill="url(&quot;#SvgjsRadialGradient8597&quot;)"></path>
            <path d="M2475 725L2425 725L2375 725L2325 725L2275 725L2225 725L2175 725L2125 675L2075 675L2025 675L1975 675L1925 675L1875 675" stroke="url(&quot;#SvgjsRadialGradient8597&quot;)" stroke-width="8.33"></path>
            <path d="M1866.67 675 a8.33 8.33 0 1 0 16.66 0 a8.33 8.33 0 1 0 -16.66 0z" fill="url(&quot;#SvgjsRadialGradient8597&quot;)"></path>
            <path d="M375 975L325 1025L275 1025L225 1025L175 1025L125 1025M1075 1075L1025 1025L975 975L925 975L875 975L825 975L775 975L725 975L675 975L625 975M1175 1075L1125 1025M825 1075L775 1025M1825 975L1775 925L1725 925L1675 925L1625 925L1575 925L1525 925L1475 925L1425 925L1375 925L1325 875L1275 875L1225 875M1225 1075L1175 1125L1125 1125L1075 1125L1025 1125L975 1125L925 1075L875 1075L825 1125L775 1125L725 1125L675 1125L625 1125L575 1125L525 1075L475 1075M475 975L425 925L375 875L325 875L275 875L225 875L175 875L125 875M1925 975L1875 925L1825 925L1775 875L1725 875L1675 875L1625 875L1575 825L1525 825L1475 825L1425 775M1625 975L1575 1025L1525 1025L1475 1025M1025 1075L975 1075M525 975L475 1025L425 1025L375 1025L325 1075L275 1075L225 1075L175 1075L125 1075M2475 875L2425 875L2375 925L2325 975L2275 975L2225 975L2175 975L2125 975L2075 975L2025 975L1975 975L1925 975L1875 975L1825 975L1775 975L1725 975L1675 975L1625 975L1575 975L1525 975L1475 975L1425 975L1375 975L1325 975L1275 1025L1225 1075L1175 1075L1125 1075L1075 1075L1025 1075L975 1025L925 1025L875 1025L825 1075L775 1075L725 1025L675 1025L625 1025L575 975L525 975L475 975L425 975L375 975L325 975L275 975L225 975" stroke="url(&quot;#SvgjsRadialGradient8597&quot;)" stroke-width="8.33"></path>
            <path d="M216.67 975 a8.33 8.33 0 1 0 16.66 0 a8.33 8.33 0 1 0 -16.66 0zM116.67 1025 a8.33 8.33 0 1 0 16.66 0 a8.33 8.33 0 1 0 -16.66 0zM616.67 975 a8.33 8.33 0 1 0 16.66 0 a8.33 8.33 0 1 0 -16.66 0zM1116.67 1025 a8.33 8.33 0 1 0 16.66 0 a8.33 8.33 0 1 0 -16.66 0zM766.67 1025 a8.33 8.33 0 1 0 16.66 0 a8.33 8.33 0 1 0 -16.66 0zM1216.67 875 a8.33 8.33 0 1 0 16.66 0 a8.33 8.33 0 1 0 -16.66 0zM466.67 1075 a8.33 8.33 0 1 0 16.66 0 a8.33 8.33 0 1 0 -16.66 0zM116.67 875 a8.33 8.33 0 1 0 16.66 0 a8.33 8.33 0 1 0 -16.66 0zM1416.67 775 a8.33 8.33 0 1 0 16.66 0 a8.33 8.33 0 1 0 -16.66 0zM1466.67 1025 a8.33 8.33 0 1 0 16.66 0 a8.33 8.33 0 1 0 -16.66 0zM966.67 1075 a8.33 8.33 0 1 0 16.66 0 a8.33 8.33 0 1 0 -16.66 0zM116.67 1075 a8.33 8.33 0 1 0 16.66 0 a8.33 8.33 0 1 0 -16.66 0z" fill="url(&quot;#SvgjsRadialGradient8597&quot;)"></path>
            <path d="M1975 625L1925 575L1875 575L1825 575L1775 575M2475 675L2425 675L2375 675L2325 675L2275 675L2225 675L2175 675L2125 625L2075 625L2025 625L1975 625L1925 625L1875 625L1825 625L1775 625" stroke="url(&quot;#SvgjsRadialGradient8597&quot;)" stroke-width="8.33"></path>
            <path d="M1766.67 625 a8.33 8.33 0 1 0 16.66 0 a8.33 8.33 0 1 0 -16.66 0zM1766.67 575 a8.33 8.33 0 1 0 16.66 0 a8.33 8.33 0 1 0 -16.66 0z" fill="url(&quot;#SvgjsRadialGradient8597&quot;)"></path>
            <path d="M1175 1225L1125 1175L1075 1175L1025 1175M2275 1075L2225 1025M1325 1225L1275 1175L1225 1175L1175 1175M2075 1025L2025 1025L1975 1025L1925 1025L1875 1025M1775 1025L1725 1075L1675 1075M1375 1175L1325 1175M1875 1075L1825 1075M2325 1025L2275 1025M2475 925L2425 925L2375 975L2325 1025L2275 1075L2225 1075L2175 1025L2125 1025L2075 1025L2025 1075L1975 1075L1925 1075L1875 1075L1825 1025L1775 1025L1725 1025L1675 1025L1625 1075L1575 1075L1525 1075L1475 1125L1425 1175L1375 1175L1325 1225L1275 1225L1225 1225L1175 1225L1125 1225L1075 1225L1025 1225L975 1225L925 1225L875 1225L825 1225" stroke="url(&quot;#SvgjsRadialGradient8597&quot;)" stroke-width="8.33"></path>
            <path d="M816.67 1225 a8.33 8.33 0 1 0 16.66 0 a8.33 8.33 0 1 0 -16.66 0zM1016.67 1175 a8.33 8.33 0 1 0 16.66 0 a8.33 8.33 0 1 0 -16.66 0zM2216.67 1025 a8.33 8.33 0 1 0 16.66 0 a8.33 8.33 0 1 0 -16.66 0zM1166.67 1175 a8.33 8.33 0 1 0 16.66 0 a8.33 8.33 0 1 0 -16.66 0zM1866.67 1025 a8.33 8.33 0 1 0 16.66 0 a8.33 8.33 0 1 0 -16.66 0zM1666.67 1075 a8.33 8.33 0 1 0 16.66 0 a8.33 8.33 0 1 0 -16.66 0zM1316.67 1175 a8.33 8.33 0 1 0 16.66 0 a8.33 8.33 0 1 0 -16.66 0zM1816.67 1075 a8.33 8.33 0 1 0 16.66 0 a8.33 8.33 0 1 0 -16.66 0zM2266.67 1025 a8.33 8.33 0 1 0 16.66 0 a8.33 8.33 0 1 0 -16.66 0z" fill="url(&quot;#SvgjsRadialGradient8597&quot;)"></path>
            <path d="M2475 625L2425 625L2375 625L2325 625L2275 625L2225 625L2175 625L2125 575L2075 575L2025 575" stroke="url(&quot;#SvgjsRadialGradient8597&quot;)" stroke-width="8.33"></path>
            <path d="M2016.67 575 a8.33 8.33 0 1 0 16.66 0 a8.33 8.33 0 1 0 -16.66 0z" fill="url(&quot;#SvgjsRadialGradient8597&quot;)"></path>
            <path d="M1025 1275L975 1325L925 1325L875 1325L825 1325M1225 1325L1175 1275L1125 1275L1075 1275M2125 1075L2075 1125L2025 1175L1975 1175L1925 1175L1875 1175L1825 1175L1775 1175L1725 1175M775 1275L725 1225L675 1225L625 1175L575 1175M1675 1125L1625 1175M1625 1125L1575 1125L1525 1125M1325 1275L1275 1275L1225 1275M1075 1325L1025 1325M2175 1125L2125 1125L2075 1175M2475 975L2425 975L2375 1025L2325 1075L2275 1125L2225 1125L2175 1125L2125 1075L2075 1075L2025 1125L1975 1125L1925 1125L1875 1125L1825 1125L1775 1125L1725 1125L1675 1125L1625 1125L1575 1175L1525 1175L1475 1175L1425 1225L1375 1225L1325 1275L1275 1325L1225 1325L1175 1325L1125 1325L1075 1325L1025 1275L975 1275L925 1275L875 1275L825 1275L775 1275L725 1275" stroke="url(&quot;#SvgjsRadialGradient8597&quot;)" stroke-width="8.33"></path>
            <path d="M716.67 1275 a8.33 8.33 0 1 0 16.66 0 a8.33 8.33 0 1 0 -16.66 0zM816.67 1325 a8.33 8.33 0 1 0 16.66 0 a8.33 8.33 0 1 0 -16.66 0zM1066.67 1275 a8.33 8.33 0 1 0 16.66 0 a8.33 8.33 0 1 0 -16.66 0zM1716.67 1175 a8.33 8.33 0 1 0 16.66 0 a8.33 8.33 0 1 0 -16.66 0zM566.67 1175 a8.33 8.33 0 1 0 16.66 0 a8.33 8.33 0 1 0 -16.66 0zM1616.67 1175 a8.33 8.33 0 1 0 16.66 0 a8.33 8.33 0 1 0 -16.66 0zM1516.67 1125 a8.33 8.33 0 1 0 16.66 0 a8.33 8.33 0 1 0 -16.66 0zM1216.67 1275 a8.33 8.33 0 1 0 16.66 0 a8.33 8.33 0 1 0 -16.66 0zM1016.67 1325 a8.33 8.33 0 1 0 16.66 0 a8.33 8.33 0 1 0 -16.66 0zM2066.67 1175 a8.33 8.33 0 1 0 16.66 0 a8.33 8.33 0 1 0 -16.66 0z" fill="url(&quot;#SvgjsRadialGradient8597&quot;)"></path>
            <path d="M1625 525L1575 475M1675 525L1625 575M1725 525L1675 575M2475 575L2425 575L2375 575L2325 575L2275 575L2225 575L2175 575L2125 525L2075 525L2025 525L1975 525L1925 525L1875 525L1825 525L1775 525L1725 525L1675 525L1625 525L1575 525" stroke="url(&quot;#SvgjsRadialGradient8597&quot;)" stroke-width="8.33"></path>
            <path d="M1566.67 525 a8.33 8.33 0 1 0 16.66 0 a8.33 8.33 0 1 0 -16.66 0zM1566.67 475 a8.33 8.33 0 1 0 16.66 0 a8.33 8.33 0 1 0 -16.66 0zM1616.67 575 a8.33 8.33 0 1 0 16.66 0 a8.33 8.33 0 1 0 -16.66 0zM1666.67 575 a8.33 8.33 0 1 0 16.66 0 a8.33 8.33 0 1 0 -16.66 0z" fill="url(&quot;#SvgjsRadialGradient8597&quot;)"></path>
            <path d="M2025 475L1975 425L1925 425L1875 425M2275 525L2225 475L2175 475L2125 425L2075 425M1575 375L1525 325L1475 275L1425 275M1725 475L1675 475L1625 475M1425 325L1375 375L1325 425L1275 475L1225 475M1825 475L1775 425L1725 425L1675 375L1625 325L1575 325L1525 275M2475 525L2425 525L2375 525L2325 525L2275 525L2225 525L2175 525L2125 475L2075 475L2025 475L1975 475L1925 475L1875 475L1825 475L1775 475L1725 475L1675 425L1625 375L1575 375L1525 375L1475 325L1425 325L1375 325L1325 375" stroke="url(&quot;#SvgjsRadialGradient8597&quot;)" stroke-width="8.33"></path>
            <path d="M1316.67 375 a8.33 8.33 0 1 0 16.66 0 a8.33 8.33 0 1 0 -16.66 0zM1866.67 425 a8.33 8.33 0 1 0 16.66 0 a8.33 8.33 0 1 0 -16.66 0zM2066.67 425 a8.33 8.33 0 1 0 16.66 0 a8.33 8.33 0 1 0 -16.66 0zM1416.67 275 a8.33 8.33 0 1 0 16.66 0 a8.33 8.33 0 1 0 -16.66 0zM1616.67 475 a8.33 8.33 0 1 0 16.66 0 a8.33 8.33 0 1 0 -16.66 0zM1216.67 475 a8.33 8.33 0 1 0 16.66 0 a8.33 8.33 0 1 0 -16.66 0zM1516.67 275 a8.33 8.33 0 1 0 16.66 0 a8.33 8.33 0 1 0 -16.66 0z" fill="url(&quot;#SvgjsRadialGradient8597&quot;)"></path>
            <path d="M975 1375L925 1425L875 1425L825 1425L775 1475L725 1475M1225 1375L1175 1425L1125 1425L1075 1425L1025 1425L975 1425M175 1425L125 1375M675 1375L625 1325L575 1325L525 1325L475 1325L425 1325L375 1325L325 1325L275 1325M2275 1175L2225 1175L2175 1175L2125 1175M425 1425L375 1375M525 1425L475 1475M625 1375L575 1425L525 1475M1275 1375L1225 1425L1175 1475L1125 1475L1075 1475L1025 1475L975 1475L925 1475M475 1425L425 1375M725 1375L675 1325L625 1275L575 1275M325 1425L275 1375L225 1375L175 1375L125 1325M2475 1075L2425 1075L2375 1075L2325 1125L2275 1175L2225 1225L2175 1225L2125 1225L2075 1225L2025 1225L1975 1225L1925 1225L1875 1225L1825 1225L1775 1225L1725 1225L1675 1225L1625 1225L1575 1225L1525 1225L1475 1225L1425 1275L1375 1275L1325 1325L1275 1375L1225 1375L1175 1375L1125 1375L1075 1375L1025 1375L975 1375L925 1375L875 1375L825 1375L775 1375L725 1375L675 1375L625 1375L575 1375L525 1425L475 1425L425 1425L375 1425L325 1425L275 1425L225 1425L175 1425L125 1425" stroke="url(&quot;#SvgjsRadialGradient8597&quot;)" stroke-width="8.33"></path>
            <path d="M116.67 1425 a8.33 8.33 0 1 0 16.66 0 a8.33 8.33 0 1 0 -16.66 0zM716.67 1475 a8.33 8.33 0 1 0 16.66 0 a8.33 8.33 0 1 0 -16.66 0zM966.67 1425 a8.33 8.33 0 1 0 16.66 0 a8.33 8.33 0 1 0 -16.66 0zM116.67 1375 a8.33 8.33 0 1 0 16.66 0 a8.33 8.33 0 1 0 -16.66 0zM266.67 1325 a8.33 8.33 0 1 0 16.66 0 a8.33 8.33 0 1 0 -16.66 0zM2116.67 1175 a8.33 8.33 0 1 0 16.66 0 a8.33 8.33 0 1 0 -16.66 0zM366.67 1375 a8.33 8.33 0 1 0 16.66 0 a8.33 8.33 0 1 0 -16.66 0zM466.67 1475 a8.33 8.33 0 1 0 16.66 0 a8.33 8.33 0 1 0 -16.66 0zM516.67 1475 a8.33 8.33 0 1 0 16.66 0 a8.33 8.33 0 1 0 -16.66 0zM916.67 1475 a8.33 8.33 0 1 0 16.66 0 a8.33 8.33 0 1 0 -16.66 0zM416.67 1375 a8.33 8.33 0 1 0 16.66 0 a8.33 8.33 0 1 0 -16.66 0zM566.67 1275 a8.33 8.33 0 1 0 16.66 0 a8.33 8.33 0 1 0 -16.66 0zM116.67 1325 a8.33 8.33 0 1 0 16.66 0 a8.33 8.33 0 1 0 -16.66 0z" fill="url(&quot;#SvgjsRadialGradient8597&quot;)"></path>
            <path d="M2475 475L2425 475L2375 475L2325 475" stroke="url(&quot;#SvgjsRadialGradient8597&quot;)" stroke-width="8.33"></path>
            <path d="M2316.67 475 a8.33 8.33 0 1 0 16.66 0 a8.33 8.33 0 1 0 -16.66 0z" fill="url(&quot;#SvgjsRadialGradient8597&quot;)"></path>
            <path d="M2425 1125L2375 1175M1675 1275L1625 1325M1775 1275L1725 1325M2025 1275L1975 1325L1925 1325L1875 1325M2175 1275L2125 1325L2075 1325L2025 1325L1975 1375L1925 1375M2475 1125L2425 1125L2375 1125L2325 1175L2275 1225L2225 1275L2175 1275L2125 1275L2075 1275L2025 1275L1975 1275L1925 1275L1875 1275L1825 1275L1775 1275L1725 1275L1675 1275L1625 1275L1575 1275L1525 1275L1475 1275L1425 1325" stroke="url(&quot;#SvgjsRadialGradient8597&quot;)" stroke-width="8.33"></path>
            <path d="M1416.67 1325 a8.33 8.33 0 1 0 16.66 0 a8.33 8.33 0 1 0 -16.66 0zM2366.67 1175 a8.33 8.33 0 1 0 16.66 0 a8.33 8.33 0 1 0 -16.66 0zM1616.67 1325 a8.33 8.33 0 1 0 16.66 0 a8.33 8.33 0 1 0 -16.66 0zM1716.67 1325 a8.33 8.33 0 1 0 16.66 0 a8.33 8.33 0 1 0 -16.66 0zM1866.67 1325 a8.33 8.33 0 1 0 16.66 0 a8.33 8.33 0 1 0 -16.66 0zM1916.67 1375 a8.33 8.33 0 1 0 16.66 0 a8.33 8.33 0 1 0 -16.66 0z" fill="url(&quot;#SvgjsRadialGradient8597&quot;)"></path>
            <path d="M2425 425L2375 375L2325 325M2475 425L2425 425L2375 425" stroke="url(&quot;#SvgjsRadialGradient8597&quot;)" stroke-width="8.33"></path>
            <path d="M2366.67 425 a8.33 8.33 0 1 0 16.66 0 a8.33 8.33 0 1 0 -16.66 0zM2316.67 325 a8.33 8.33 0 1 0 16.66 0 a8.33 8.33 0 1 0 -16.66 0z" fill="url(&quot;#SvgjsRadialGradient8597&quot;)"></path>
        </g>
    </g>
    <defs>
        <mask id="SvgjsMask8596">
            <rect width="2440" height="1560" fill="#ffffff"></rect>
        </mask>
        <radialGradient cx="0" cy="1560" r="2896.07" gradientUnits="userSpaceOnUse" id="SvgjsRadialGradient8597">
            <stop stop-color="rgba(95, 130, 165, 1)" offset="0"></stop>
            <stop stop-color="rgba(57, 57, 57, 1)" offset="0.75"></stop>
        </radialGradient>
    </defs>
</svg>